HIERARCHY
ROOT Hips
{
	OFFSET 0.000000 0.000000 0.000000
	CHANNELS 6 Xposition Yposition Zposition Xrotation Yrotation Zrotation
	JOINT LeftUpLeg_virtual
	{
		OFFSET 0.000000 0.000000 0.000000
		CHANNELS 3 Xrotation Yrotation Zrotation
		JOINT LeftUpLeg
		{
			OFFSET 15.427100 -6.655098 0.678600
			CHANNELS 3 Xrotation Yrotation Zrotation
			JOINT LeftLeg
			{
				OFFSET 4.081073 -39.591068 13.024000
				CHANNELS 3 Xrotation Yrotation Zrotation
				JOINT LeftFoot
				{
					OFFSET -4.081074 -37.707932 -15.979700
					CHANNELS 3 Xrotation Yrotation Zrotation
					JOINT LeftToeBase
					{
						OFFSET 5.346399 -15.068900 20.645000
						CHANNELS 3 Xrotation Yrotation Zrotation
						JOINT LeftToe_End
						{
							OFFSET 2.754700 0.931300 11.300900
							CHANNELS 3 Xrotation Yrotation Zrotation
							End Site
							{
								OFFSET 0 0 0
							}
						}
					}
				}
			}
		}
	}
	JOINT RightUpLeg_virtual
	{
		OFFSET 0.000000 0.000000 0.000000
		CHANNELS 3 Xrotation Yrotation Zrotation
		JOINT RightUpLeg
		{
			OFFSET -15.569500 -6.655098 0.678600
			CHANNELS 3 Xrotation Yrotation Zrotation
			JOINT RightLeg
			{
				OFFSET -4.081825 -39.591045 13.023800
				CHANNELS 3 Xrotation Yrotation Zrotation
				JOINT RightFoot
				{
					OFFSET 4.081824 -37.707954 -15.979600
					CHANNELS 3 Xrotation Yrotation Zrotation
					JOINT RightToeBase
					{
						OFFSET -5.346400 -15.068900 20.645000
						CHANNELS 3 Xrotation Yrotation Zrotation
						JOINT RightToe_End
						{
							OFFSET -2.754700 0.931300 11.300900
							CHANNELS 3 Xrotation Yrotation Zrotation
							End Site
							{
								OFFSET 0 0 0
							}
						}
					}
				}
			}
		}
	}
	JOINT Spine_virtual
	{
		OFFSET 0.000000 0.000000 0.000000
		CHANNELS 3 Xrotation Yrotation Zrotation
		JOINT Spine
		{
			OFFSET -0.279200 12.230698 -2.892100
			CHANNELS 3 Xrotation Yrotation Zrotation
			JOINT Spine1
			{
				OFFSET -0.232667 10.192268 -1.242267
				CHANNELS 3 Xrotation Yrotation Zrotation
				JOINT Spine1_split
				{
					OFFSET -0.232667 10.192268 -1.242267
					CHANNELS 3 Xrotation Yrotation Zrotation
					JOINT Spine2
					{
						OFFSET -0.232667 10.192268 -1.242267
						CHANNELS 3 Xrotation Yrotation Zrotation
						JOINT Neck_virtual
						{
							OFFSET 0.000000 0.000000 0.000000
							CHANNELS 3 Xrotation Yrotation Zrotation
							JOINT Neck
							{
								OFFSET -0.418800 17.814194 8.416900
								CHANNELS 3 Xrotation Yrotation Zrotation
								JOINT Head
								{
									OFFSET 0.000000 7.031097 3.806800
									CHANNELS 3 Xrotation Yrotation Zrotation
									JOINT HeadTop_End
									{
										OFFSET 0.000000 24.646606 12.978600
										CHANNELS 3 Xrotation Yrotation Zrotation
										End Site
										{
											OFFSET 0 0 0
										}
									}
								}
							}
						}
						JOINT LeftShoulder_virtual
						{
							OFFSET 0.000000 0.000000 0.000000
							CHANNELS 3 Xrotation Yrotation Zrotation
							JOINT LeftShoulder
							{
								OFFSET 8.476499 7.247704 -3.868750
								CHANNELS 3 Xrotation Yrotation Zrotation
								JOINT LeftShoulder_split
								{
									OFFSET 8.476499 7.247704 -3.868750
									CHANNELS 3 Xrotation Yrotation Zrotation
									JOINT LeftArm
									{
										OFFSET 9.308998 -2.777710 0.208600
										CHANNELS 3 Xrotation Yrotation Zrotation
										JOINT LeftForeArm
										{
											OFFSET 29.972298 0.000000 0.000000
											CHANNELS 3 Xrotation Yrotation Zrotation
											JOINT LeftHand
											{
												OFFSET 26.026505 0.000000 0.000000
												CHANNELS 3 Xrotation Yrotation Zrotation
												End Site
												{
													OFFSET 0 0 0
												}
											}
										}
									}
								}
							}
						}
						JOINT RightShoulder_virtual
						{
							OFFSET 0.000000 0.000000 0.000000
							CHANNELS 3 Xrotation Yrotation Zrotation
							JOINT RightShoulder
							{
								OFFSET -7.570500 7.247704 -3.868750
								CHANNELS 3 Xrotation Yrotation Zrotation
								JOINT RightShoulder_split
								{
									OFFSET -7.570500 7.247704 -3.868750
									CHANNELS 3 Xrotation Yrotation Zrotation
									JOINT RightArm
									{
										OFFSET -9.308998 -2.777710 0.208500
										CHANNELS 3 Xrotation Yrotation Zrotation
										JOINT RightForeArm
										{
											OFFSET -29.972300 0.000000 0.000000
											CHANNELS 3 Xrotation Yrotation Zrotation
											JOINT RightHand
											{
												OFFSET -26.026505 0.000000 0.000000
												CHANNELS 3 Xrotation Yrotation Zrotation
												End Site
												{
													OFFSET 0 0 0
												}
											}
										}
									}
								}
							}
						}
					}
				}
			}
		}
	}
}
MOTION
Frames: 11
Frame Time: 0.03333333
13.977175 15.905472 188.634384 0.000000 0.000000 0.000000 -69.664911 2.035635 2.286282 -48.013682 -25.546280 39.798993 84.552428 -24.019354 1.027765 14.384471 -5.106998 -41.322156 8.672083 -2.907652 2.086054 0.000000 0.000000 0.000000 -74.123713 7.682139 5.796884 -66.846720 17.766253 -28.266381 98.379805 18.471818 0.684311 16.892364 -1.747989 17.709919 32.269464 -3.343436 -11.363843 0.000000 0.000000 0.000000 -76.096893 12.900519 8.669808 4.024522 -8.594716 0.462213 0.465811 0.429889 0.679675 0.161962 -0.015024 -0.072551 0.000000 0.000000 0.000000 -1.609495 3.264514 1.563982 -2.927523 2.255355 11.946667 -17.966282 -31.981637 -6.676698 0.000000 0.000000 0.000000 -4.972501 1.983310 0.200340 -2.801917 -20.035279 -2.344817 -3.687874 3.836840 -2.495899 66.777154 -15.009097 -39.217853 -2.254478 -31.866903 5.708365 0.000000 0.000000 0.000000 -2.904808 1.075493 1.313834 -0.286498 2.366918 12.877538 7.076271 3.753049 -6.232235 74.758797 33.305280 9.476822 -3.317548 15.569843 -2.819184 0.000000 0.000000 0.000000 
14.361436 15.362095 188.637024 0.000000 0.000000 0.000000 -69.603582 2.008788 2.063512 -48.731398 -26.160289 38.834680 84.555911 -22.825572 1.046707 14.354667 -5.616802 -39.552294 8.718208 -2.784435 2.372393 0.000000 0.000000 0.000000 -74.254190 7.767199 5.864156 -65.607082 16.333392 -29.504126 97.728539 18.255347 0.354733 14.092362 -1.126832 19.737481 32.674880 -3.688499 -12.269890 0.000000 0.000000 0.000000 -76.488632 12.515868 8.389093 4.075798 -8.504510 0.674579 0.704528 0.481066 0.655035 0.131088 0.027738 -0.071905 0.000000 0.000000 0.000000 -1.297702 3.349840 1.526609 -2.119482 2.103462 11.785216 -19.325189 -34.454029 -8.486671 0.000000 0.000000 0.000000 -4.689787 2.066888 0.218305 -2.672243 -19.583998 -2.960513 -2.778703 3.421343 -2.400237 65.284533 -14.933018 -38.360514 -0.921129 -31.021059 6.557372 0.000000 0.000000 0.000000 -2.567478 1.136774 1.270634 -0.244432 1.901488 13.471629 7.022086 3.239067 -6.288486 74.895299 33.388922 9.505679 -3.115902 15.990096 -2.811638 0.000000 0.000000 0.000000 
14.760503 14.855125 188.581787 0.000000 0.000000 0.000000 -69.708255 2.174039 1.922818 -49.574138 -26.546715 37.994467 84.838278 -21.666291 1.050735 14.368749 -6.113992 -37.665884 8.720392 -2.662333 2.641249 0.000000 0.000000 0.000000 -74.276183 8.104453 6.010673 -63.747508 14.273269 -30.620677 96.669703 17.936970 -0.266121 10.372896 -0.698591 21.636101 32.224030 -3.817672 -13.331132 0.000000 0.000000 0.000000 -76.957531 12.268239 8.196389 4.220627 -8.375428 0.743726 1.011823 0.542561 0.654853 0.110364 0.029567 -0.072842 0.000000 0.000000 0.000000 -0.953755 3.433914 1.539053 -0.941414 2.080603 11.405565 -20.848495 -36.989545 -10.260583 0.000000 0.000000 0.000000 -4.400207 2.126154 0.220367 -2.519762 -19.010032 -3.727711 -2.101040 3.190434 -2.244081 64.078499 -14.443031 -37.259403 0.417539 -30.896822 7.312315 0.000000 0.000000 0.000000 -2.228603 1.202221 1.295435 -0.137092 1.390028 13.838038 6.892882 2.748279 -6.195309 74.166313 33.528248 10.164628 -3.064384 16.284892 -2.638367 0.000000 0.000000 0.000000 
15.110797 14.491859 188.481400 0.000000 0.000000 0.000000 -69.917908 2.525079 1.853870 -50.491412 -26.795522 37.202415 85.223125 -20.672725 1.069678 14.494384 -6.809387 -35.847555 8.640696 -2.562096 2.888285 0.000000 0.000000 0.000000 -74.232395 8.736452 6.226891 -61.631071 11.720177 -31.557287 95.260177 17.560232 -0.997827 6.717269 -0.451989 23.438235 31.065005 -3.771962 -14.363410 0.000000 0.000000 0.000000 -77.377956 12.154074 7.999587 4.411425 -8.230498 0.713855 1.413412 0.623891 0.687699 0.106431 0.009066 -0.067897 0.000000 0.000000 0.000000 -0.572445 3.518973 1.603053 0.511928 2.150934 10.953107 -22.590448 -39.424132 -11.949029 0.000000 0.000000 0.000000 -4.080397 2.182374 0.212762 -2.324396 -18.197463 -4.579724 -1.483190 2.754548 -2.030970 63.239704 -13.595568 -35.809657 1.763895 -31.343970 8.002004 0.000000 0.000000 0.000000 -1.854012 1.280047 1.381333 -0.010117 1.002234 14.043333 6.628507 2.481403 -5.990779 72.699181 33.726764 11.211238 -3.150222 16.500887 -2.302415 0.000000 0.000000 0.000000 
15.384772 14.319286 188.240829 0.000000 0.000000 0.000000 -70.165611 2.954801 1.716626 -51.530400 -26.946374 36.323492 85.499809 -19.874741 1.133908 14.718935 -7.750308 -34.130974 8.551941 -2.486244 3.096348 0.000000 0.000000 0.000000 -74.315914 9.511722 6.375423 -59.519593 8.857327 -32.412079 93.577273 17.309255 -1.719708 3.848702 -0.217949 25.164866 29.854405 -3.649600 -15.107644 0.000000 0.000000 0.000000 -77.638187 12.067220 7.639025 4.578046 -8.082429 0.668927 1.899659 0.727244 0.756647 0.100936 -0.025649 -0.064949 0.000000 0.000000 0.000000 -0.158521 3.599287 1.697840 2.057535 2.254116 10.510685 -24.529123 -41.654653 -13.512910 0.000000 0.000000 0.000000 -3.703309 2.246986 0.193654 -2.071198 -17.040555 -5.434986 -0.866208 2.018783 -1.959890 62.716361 -12.553819 -34.021271 3.118239 -32.158829 8.672522 0.000000 0.000000 0.000000 -1.413054 1.377551 1.503117 0.085687 0.801080 14.107809 6.343350 2.436343 -5.731301 70.601890 34.030694 12.461064 -3.376433 16.681603 -1.799091 0.000000 0.000000 0.000000 
15.647611 14.313210 187.927216 0.000000 0.000000 0.000000 -70.301095 3.356681 1.390118 -52.803393 -27.010417 35.218836 85.597741 -19.216744 1.246654 15.037917 -8.903235 -32.518309 8.517496 -2.423354 3.231479 0.000000 0.000000 0.000000 -74.220121 10.401226 6.397699 -57.524550 5.927401 -33.216286 91.542491 17.205918 -2.326234 1.925851 0.036738 26.609136 29.213757 -3.568993 -15.419932 0.000000 0.000000 0.000000 -77.650713 11.922146 7.027527 4.712075 -7.926723 0.703193 2.447647 0.832560 0.854052 0.089557 -0.039741 -0.063763 0.000000 0.000000 0.000000 0.286782 3.670244 1.803110 3.517367 2.359359 10.097146 -26.597271 -43.596029 -14.932877 0.000000 0.000000 0.000000 -3.258733 2.313478 0.163946 -1.760870 -15.541138 -6.260327 -0.247771 1.019894 -2.054014 62.357496 -11.520081 -31.974619 4.515416 -33.021642 9.331335 0.000000 0.000000 0.000000 -0.887749 1.488218 1.631926 0.110917 0.811277 14.031094 5.909074 2.404694 -5.447999 67.966099 34.341515 13.867527 -3.720917 16.910766 -1.168796 0.000000 0.000000 0.000000 
15.944728 14.374523 187.636414 0.000000 0.000000 0.000000 -70.323436 3.640941 0.850620 -54.291278 -27.019069 33.871236 85.487700 -18.562868 1.337048 15.495222 -10.129504 -30.884514 8.497212 -2.358703 3.336255 0.000000 0.000000 0.000000 -74.059038 11.050161 6.086426 -55.724303 3.005292 -33.922520 89.142459 17.047184 -2.665305 0.802600 0.158820 27.341719 29.451663 -3.609072 -15.297744 0.000000 0.000000 0.000000 -77.365751 11.659464 6.192738 4.828278 -7.765019 0.857632 3.048550 0.921739 0.953905 0.071265 -0.022997 -0.069749 0.000000 0.000000 0.000000 0.801297 3.721062 1.892017 4.749141 2.396563 9.708171 -28.614166 -45.186059 -16.197076 0.000000 0.000000 0.000000 -2.734802 2.367634 0.112230 -1.389974 -13.747264 -7.015616 0.309425 -0.084663 -2.308357 61.984998 -10.627375 -29.711726 5.919455 -33.562081 9.918755 0.000000 0.000000 0.000000 -0.289264 1.598175 1.741562 0.040443 1.054076 13.814768 5.315185 2.200610 -5.261060 64.770622 34.565617 15.519641 -4.158361 17.288370 -0.446639 0.000000 0.000000 0.000000 
16.248922 14.443203 187.360031 0.000000 0.000000 0.000000 -70.248099 3.617606 0.064660 -55.986009 -26.923175 32.347451 85.250350 -17.848930 1.361309 16.088362 -11.347843 -29.208228 8.521404 -2.276479 3.424408 0.000000 0.000000 0.000000 -73.836742 11.268941 5.439612 -54.228181 0.146137 -34.553282 86.506313 16.796354 -2.735526 0.284709 0.172599 27.382800 30.283338 -3.763840 -14.882781 0.000000 0.000000 0.000000 -76.836322 11.267739 5.224857 4.935660 -7.619434 1.121721 3.683524 0.984176 1.038251 0.072508 0.010384 -0.077786 0.000000 0.000000 0.000000 1.370834 3.753894 1.945211 5.663140 2.387701 9.273856 -30.381805 -46.396594 -17.230238 0.000000 0.000000 0.000000 -2.132479 2.404037 0.031692 -0.974498 -11.733689 -7.664170 0.812185 -1.046859 -2.509536 61.496660 -9.941404 -27.255621 7.254633 -33.551146 10.364181 0.000000 0.000000 0.000000 0.363422 1.700261 1.815514 -0.121254 1.433009 13.446348 4.633036 1.902273 -5.079924 61.173736 34.564466 17.484374 -4.640756 17.874199 0.295670 0.000000 0.000000 0.000000 
16.571114 14.459003 187.169434 0.000000 0.000000 0.000000 -70.017014 3.332185 -0.816743 -57.805079 -26.793924 30.763555 85.018090 -17.038778 1.293412 16.833309 -12.492054 -27.499914 8.617568 -2.164676 3.464714 0.000000 0.000000 0.000000 -73.550551 10.945987 4.500330 -53.268020 -2.510261 -35.051295 83.742279 16.467786 -2.635851 0.173683 0.197628 27.084821 30.966206 -3.979975 -14.397168 0.000000 0.000000 0.000000 -76.075706 10.761940 4.207088 5.063206 -7.511337 1.461952 4.336391 1.031447 1.089865 0.085591 0.052737 -0.092600 0.000000 0.000000 0.000000 1.997439 3.783314 1.948022 6.262432 2.351197 8.756414 -31.797720 -47.258034 -18.003113 0.000000 0.000000 0.000000 -1.475404 2.427001 -0.080287 -0.534269 -9.636150 -8.191741 1.327740 -1.798749 -2.472301 60.850668 -9.444560 -24.600110 8.409292 -32.894519 10.564079 0.000000 0.000000 0.000000 1.038390 1.793018 1.841794 -0.359688 1.876144 12.980557 3.849593 1.629408 -4.858644 57.414925 34.227861 19.721946 -5.117154 18.675544 1.017631 0.000000 0.000000 0.000000 
16.814808 14.424473 187.098053 0.000000 0.000000 0.000000 -69.679254 2.811441 -1.703258 -59.585232 -26.700721 29.251532 84.818874 -16.127438 1.130282 17.700971 -13.398857 -25.776459 8.843809 -2.013783 3.415342 0.000000 0.000000 0.000000 -73.297157 10.111042 3.375087 -52.868714 -4.864339 -35.413073 81.054258 16.105610 -2.518676 0.317280 0.358507 26.724049 31.208394 -4.237198 -13.950379 0.000000 0.000000 0.000000 -75.124499 10.108579 3.145812 5.207285 -7.457910 1.813650 4.978956 1.087834 1.096768 0.104918 0.095756 -0.107729 0.000000 0.000000 0.000000 2.664558 3.833739 1.879930 6.597050 2.283919 8.169081 -32.790300 -47.937519 -18.479912 0.000000 0.000000 0.000000 -0.781639 2.462620 -0.230863 -0.091822 -7.560439 -8.605011 1.835273 -2.420322 -2.128436 60.084566 -9.061895 -21.768974 9.335595 -31.909787 10.502256 0.000000 0.000000 0.000000 1.716108 1.887373 1.807048 -0.655559 2.323509 12.450715 3.113756 1.512877 -4.626147 53.780145 33.577599 22.083788 -5.579245 19.609009 1.718706 0.000000 0.000000 0.000000 
16.934740 14.368519 187.094742 0.000000 0.000000 0.000000 -69.219391 2.131461 -2.523806 -61.220365 -26.690390 27.869981 84.628906 -15.079463 0.896182 18.570560 -13.935400 -24.121021 9.236756 -1.823688 3.182828 0.000000 0.000000 0.000000 -72.888951 9.043538 2.250444 -52.916884 -6.873343 -35.640135 78.509842 15.737241 -2.397173 0.475585 0.667923 26.241549 31.429098 -4.567125 -13.535376 0.000000 0.000000 0.000000 -73.971147 9.288257 2.049123 5.371522 -7.458326 2.133688 5.578121 1.178011 1.051119 0.125366 0.133594 -0.116799 0.000000 0.000000 0.000000 3.335733 3.930096 1.732190 6.743727 2.219722 7.556342 -33.402569 -48.637777 -18.707142 0.000000 0.000000 0.000000 -0.076539 2.536135 -0.415962 0.322511 -5.636044 -8.947739 2.424838 -3.099317 -1.646986 59.197195 -8.750892 -18.864412 10.038906 -30.985945 10.213861 0.000000 0.000000 0.000000 2.383987 2.000012 1.697824 -0.979018 2.722961 11.939088 2.445806 1.637674 -4.278912 50.527106 32.716080 24.371218 -6.032224 20.513189 2.432743 0.000000 0.000000 0.000000 
